# xmcd
#
# Track frame offsets: 
#        150
#        17903
#        34358
#        45625
#        76764
#        92387
#        118599
#        134746
#        151037
#
# Disc length: 2255 seconds
#
# Revision: 1
# Processed by: cddbd v1.5.2PL0 Copyright (c) Steve Scherf et al.
# Submitted via: ExactAudioCopyFreeDBPlugin 1.0
#
DISCID=6708cd09
DTITLE=鮎川誠 - クール・ソロ
DYEAR=1982
DGENRE=Rock
TTITLE0=JUKEBOXER
TTITLE1=DEAD GUITAR
TTITLE2=クレイジー・クール・キャット
TTITLE3=どぶねずみ
TTITLE4=アイ ラブ ユー
TTITLE5=ビールス カプセル
TTITLE6=ブーン ブーン
TTITLE7=GOOD LUCK
TTITLE8=ぶちこわせ
EXTD=YEAR: 1982
EXTT0=
EXTT1=
EXTT2=
EXTT3=
EXTT4=
EXTT5=
EXTT6=
EXTT7=
EXTT8=
PLAYORDER=
